# xmcd
# 
# Track frame offsets:
#     150
#     11547
#     35775
#     73070
#     115520
#     155625
#     200580
# 
# Disc length: 2842
# 
# Revision: 2
# Processed by: cddbd v1.5.2PL0 Copyright (c) Steve Scherf et al.
# Submitted via: fre:ac v1.0.17
# 
DISCID=5c0b1807
DTITLE=Seeing Ear Theatre - Tales From The Crypt [CD 3)
DYEAR=2001
DGENRE=
TTITLE0=Zombie! Part 1
TTITLE1=Zombie! Part 2
TTITLE2=Zombie! Part 3
TTITLE3=Zombie! Part 4
TTITLE4=Zombie! Part 5
TTITLE5=Zombie! Part 6
TTITLE6=Zombie! Part 7
EXTD=
EXTT0=
EXTT1=
EXTT2=
EXTT3=
EXTT4=
EXTT5=
EXTT6=
PLAYORDER=
